# xmcd
#
# Track frame offsets:
#	150
#	20821
#	38861
#	59689
#	80279
#	92062
#	107061
#	128388
#	144388
#	162286
#	179791
#	199105
#	211989
#	229431
#
# Disc length: 3324 seconds
# Revision: 0
# Processed by: cddbd v1.5.2PL0 Copyright (c) Steve Scherf et al.
# Submitted via: dBpowerAMP V12.0
#
DISCID=c70cfa0e
DTITLE=Katie Quick - Endless Road
DYEAR=2013
DGENRE=Country
TTITLE0=Endless Road
TTITLE1=Beautiful To Blame
TTITLE2=Hardest Goodbye
TTITLE3=It's Too Late
TTITLE4=Not Going Home
TTITLE5=Ocean And A Day
TTITLE6=Anyway
TTITLE7=Mattress On The Floor
TTITLE8=Something About The Rain
TTITLE9=Be You For A Day
TTITLE10=Sacrifice
TTITLE11=Fall Apart Again
TTITLE12=Little Girl
TTITLE13=Way Over Yonder
EXTD=
EXTT0=
EXTT1=
EXTT2=
EXTT3=
EXTT4=
EXTT5=
EXTT6=
EXTT7=
EXTT8=
EXTT9=
EXTT10=
EXTT11=
EXTT12=
EXTT13=
PLAYORDER=
